
#### ##       ##       ##     ##  ######  ####  #######  ##    ## 
 ##  ##       ##       ##     ## ##    ##  ##  ##     ## ###   ## 
 ##  ##       ##       ##     ## ##        ##  ##     ## ####  ## 
 ##  ##       ##       ##     ##  ######   ##  ##     ## ## ## ## 
 ##  ##       ##       ##     ##       ##  ##  ##     ## ##  #### 
 ##  ##       ##       ##     ## ##    ##  ##  ##     ## ##   ### 
#### ######## ########  #######   ######  ####  #######  ##    ## 

Movie Info
Plot: 14th-century knights transport a suspected witch to a monastery, 
where monks deduce her powers could be the source of the Black Plague. 
IMDB: http://www.imdb.com/title/tt0479997/
IMDB Rating: 5.5
Trailer:



General Info
Size: 1.05GB
Format: AVI
Runtime: 1:33:51



Sources
Video - Season Of The Witch PPVRIP IFLIX
Audio - Season Of The Witch PPVRIP IFLIX
(THANKS)



Video Info
ID : 0
Format : MPEG-4 Visual
Format profile : Advanced Simple@L5
Format settings, BVOP : 2
Format settings, QPel : No
Format settings, GMC : No warppoints
Format settings, Matrix : Default (H.263)
Muxing mode : Packed bitstream
Codec ID : XVID
Codec ID/Hint : XviD
Duration : 1h 33mn
Bit rate : 1 467 Kbps
Width : 704 pixels
Height : 400 pixels
Display aspect ratio : 16:9
Frame rate : 29.970 fps
Color space : YUV
Chroma subsampling : 4:2:0
Bit depth : 8 bits
Scan type : Progressive
Compression mode : Lossy
Bits/(Pixel*Frame) : 0.174
Stream size : 985 MiB (91%)
Writing library : XviD 1.0.3 (UTC 2004-12-20)


Audio Info
ID : 1
Format : MPEG Audio
Format version : Version 1
Format profile : Layer 3
Mode : Joint stereo
Mode extension : MS Stereo
Codec ID : 55
Codec ID/Hint : MP3
Duration : 1h 33mn
Bit rate mode : Constant
Bit rate : 128 Kbps
Channel(s) : 2 channels
Sampling rate : 44.1 KHz
Compression mode : Lossy
Stream size : 85.7 MiB (8%)
Alignment : Split accross interleaves
Interleave, duration : 33 ms (1.00 video frame)
Interleave, preload duration : 500 ms


Encoders Notes
I made a avs script to crop, resize & sharpen.
I dropped that into vdubmod.
There i de-interlaced & de-noised it.
Then i lowered the brightness, increased the contrast & gamma.
I also changed the colors with a rgb eq.
Finaly i re-encoded the audio & muxed it back to the video.
I lost a bit of detail but ive managed to remove most of the noise & lines (interlace).
It looks prety good imo.
Deffinatley better than the TS.
Download the sample first to check that your happy with the quality.
Enjoy...


I am looking for;
Cammers, Cams, Screeners (any type), Cam audio, Line audio, 
Un-released R6's R5's R4's R2's R1's, 
A 25GB+ FTP server, A Windows Server
& a syncer. 
If you can provide any of these please
contact me at illusion@hushmail.me


Greetz & Respect: 
ChattChitto RG, Hunter, iNK, DiNGiE, Recalled2Life, Chaos, 
SERENiTY, IFLIX, Demedic, ELEKTRI4KA, MotleyCrue, Feel-Free, 
KRG, every uploader & encoder out there.





================================== 
http://thepiratebay.org/user/hiest
==================================





Screenz:
 
http://leetleech.org/images/29507790636875842969.jpg
 
http://leetleech.org/images/65366413992063198103.jpg
 
http://leetleech.org/images/64758209897991793262.jpg
 
http://leetleech.org/images/62595694075072769976.jpg
 
http://leetleech.org/images/58811833195416568719.jpg
 
http://leetleech.org/images/63968051825870638939.jpg

#### ##       ##       ##     ##  ######  ####  #######  ##    ## 
 ##  ##       ##       ##     ## ##    ##  ##  ##     ## ###   ## 
 ##  ##       ##       ##     ## ##        ##  ##     ## ####  ## 
 ##  ##       ##       ##     ##  ######   ##  ##     ## ## ## ## 
 ##  ##       ##       ##     ##       ##  ##  ##     ## ##  #### 
 ##  ##       ##       ##     ## ##    ##  ##  ##     ## ##   ### 
#### ######## ########  #######   ######  ####  #######  ##    ## 
